<svg xmlns="http://www.w3.org/2000/svg" viewBox="0 0 512 512">
  <!-- Fondo Blanco Redondeado para visibilidad en modo oscuro -->
  <rect width="512" height="512" rx="100" fill="#ffffff"/>
  
  <!-- Icono del Banco en Navy Blue (Un poco más pequeño para dejar margen) -->
  <path transform="translate(64, 64) scale(0.75)" fill="#002B5C" d="M243.4 2.6l-224 96c-14 6-21.8 21-18.7 35.8S16.8 160 32 160v8c0 13.3 10.7 24 24 24H456c13.3 0 24-10.7 24-24v-8c15.2 0 28.3-10.7 31.3-25.6s-4.8-29.9-18.7-35.8l-224-96c-8-3.4-17.2-3.4-25.2 0zM128 224H64V416H128V224zM192 224H256V416H192V224zM320 224H384V416H320V224zM448 224V416h64V224H448zM64 448H448c17.7 0 32 14.3 32 32s-14.3 32-32 32H64c-17.7 0-32-14.3-32-32s14.3-32 32-32z"/>
</svg>
